<?xml version="1.0" encoding="utf-8"?>
<!-- Generator: Adobe Illustrator 27.9.0, SVG Export Plug-In . SVG Version: 6.00 Build 0)  -->
<svg version="1.0" id="Calque_1" xmlns="http://www.w3.org/2000/svg" xmlns:xlink="http://www.w3.org/1999/xlink" x="0px" y="0px"
	 viewBox="0 0 64 64" style="enable-background:new 0 0 64 64;" xml:space="preserve">
<style type="text/css">
	.st0{fill:#5D4037;}
	.st1{fill:#4CAF50;}
	.st2{fill:#DCEDC8;}
	.st3{fill:#81C784;}
</style>
<path class="st0" d="M60.61,21.35C60.61,53.93,32,63.79,32,63.79S3.39,53.93,3.39,21.35c0-3.97,0.32-7.31,0.64-10.01
	C4.5,7.36,7.2,4.18,11.02,3.23C15.95,1.8,23.73,0.21,32,0.21S48.05,1.8,53.14,3.23c3.81,0.95,6.52,4.29,6.99,8.11
	C60.29,14.04,60.61,17.54,60.61,21.35z"/>
<path class="st1" d="M32,4.98c7.79,0,15.1,1.59,19.87,2.86c1.91,0.48,3.18,2.07,3.5,4.13c0.32,3.02,0.48,6.2,0.48,9.38
	c0,24.8-18.28,34.81-23.84,37.19C26.44,56,8.16,45.99,8.16,21.35c0-3.18,0.16-6.36,0.48-9.38c0.16-2.07,1.59-3.66,3.5-4.13
	C16.9,6.57,24.21,4.98,32,4.98 M32,0.21c-8.27,0-16.05,1.59-21.14,3.02C7.2,4.18,4.34,7.52,4.03,11.34
	c-0.32,2.7-0.64,6.2-0.64,10.01C3.39,53.93,32,63.79,32,63.79s28.61-9.85,28.61-42.44c0-3.97-0.32-7.31-0.64-10.01
	c-0.48-3.97-3.18-7.15-6.99-8.11C48.05,1.8,40.27,0.21,32,0.21L32,0.21z"/>
<path class="st2" d="M30.41,38.36h3.18v12.72h-3.18V38.36z"/>
<path class="st1" d="M32,9.75c0,0-9.54,7.95-9.54,20.66c0,8.27,5.25,13.51,7.95,15.89L32,41.54l1.59,4.77
	c2.7-2.38,7.95-7.63,7.95-15.89C41.54,17.69,32,9.75,32,9.75z"/>
<path class="st3" d="M32,9.75c0,0-9.54,7.95-9.54,20.66c0,8.27,5.25,13.51,7.95,15.89L32,41.54V9.75z"/>
</svg>
