<!DOCTYPE svg PUBLIC "-//W3C//DTD SVG 1.1//EN" "http://www.w3.org/Graphics/SVG/1.1/DTD/svg11.dtd">
<!-- Uploaded to: SVG Repo, www.svgrepo.com, Transformed by: SVG Repo Mixer Tools -->
<svg height="64px" width="64px" version="1.1" id="Layer_1" xmlns="http://www.w3.org/2000/svg" xmlns:xlink="http://www.w3.org/1999/xlink" viewBox="0 0 511.6 511.6" xml:space="preserve" fill="#000000">
<g id="SVGRepo_bgCarrier" stroke-width="0"/>
<g id="SVGRepo_tracerCarrier" stroke-linecap="round" stroke-linejoin="round"/>
<g id="SVGRepo_iconCarrier"> <path style="fill:#ED5564;" d="M391.256,0.214l-104.918,13.88L0,300.425l210.976,210.961L497.315,225.07L511.6,120.573 L391.256,0.214z M391.428,141.697c-11.756,0-21.295-9.539-21.295-21.312c0-11.771,9.539-21.312,21.295-21.312 c11.772,0,21.328,9.54,21.328,21.312C412.756,132.158,403.2,141.697,391.428,141.697z"/> <path style="fill:#DA4453;" d="M391.444,163.009L391.444,163.009c-11.396,0-22.092-4.434-30.148-12.49 c-8.056-8.04-12.49-18.751-12.49-30.133c0-23.497,19.126-42.623,42.623-42.623c11.398,0,22.092,4.435,30.148,12.49 c8.057,8.041,12.49,18.751,12.49,30.133s-4.434,22.093-12.49,30.133C413.52,158.575,402.826,163.009,391.444,163.009 L391.444,163.009z M391.428,99.074c-11.74,0-21.295,9.556-21.295,21.312c0,5.699,2.201,11.038,6.229,15.066 c4.028,4.028,9.384,6.245,15.066,6.245h0.016c5.684,0,11.039-2.217,15.066-6.245c4.028-4.028,6.246-9.367,6.246-15.066 c0-5.698-2.218-11.038-6.246-15.066C402.483,101.291,397.127,99.074,391.428,99.074z"/> <g> <path style="fill:#FFCE54;" d="M179.844,323.032c-16.659,9.337-24.075,15.831-29.742,10.148 c-4.669-4.652-3.482-11.335,3.106-17.923c7.604-7.588,15.191-8.432,22.062-2.654l13.536-13.553 c-14.816-14.27-32.116-9.43-45.84,4.31c-15.206,15.207-17.393,32.756-5.589,44.559c13.271,13.271,26.089,5.777,39.719-1.811 c17.299-9.618,22.607-13.084,27.729-7.963c5.402,5.402,4.122,13.271-3.388,20.766c-8.696,8.712-17.939,10.991-26.995,2.467 l-14.191,14.207c14.926,14.552,33.879,12.615,51.537-5.059c13.271-13.271,21.14-32.475,5.762-47.868 C206.666,311.791,194.77,314.696,179.844,323.032z"/> <polygon style="fill:#FFCE54;" points="237.876,285.499 269.727,253.657 258.469,242.385 226.619,274.258 212.444,260.059 247.119,225.366 235.409,213.657 186.542,262.526 251.709,327.686 301.217,278.193 289.227,266.195 253.896,301.518 "/> <path style="fill:#FFCE54;" d="M277.892,168.068c-19.5,19.484-18.767,45.854,1.921,66.542c20.406,20.405,46.947,21.14,66.26,1.826 c19.127-19.125,18.314-45.761-2.014-66.089C323.653,149.942,296.924,149.02,277.892,168.068z M334.363,224.539 c-11.163,10.976-26.37,9.336-40.359-4.668c-13.552-13.553-15.379-29.103-4.59-39.906c10.898-10.898,26.183-9.149,39.906,4.574 C343.232,198.45,345.153,213.736,334.363,224.539z"/> </g> </g>
</svg>