<?xml version="1.0" encoding="utf-8"?>
<!-- Generator: Adobe Illustrator 27.9.0, SVG Export Plug-In . SVG Version: 6.00 Build 0)  -->
<svg version="1.1" id="Calque_1" xmlns="http://www.w3.org/2000/svg" xmlns:xlink="http://www.w3.org/1999/xlink" x="0px" y="0px"
	 viewBox="0 0 64 64" style="enable-background:new 0 0 64 64;" xml:space="preserve">
<style type="text/css">
	.st0{fill:#EB5665;}
	.st1{fill:#DB4554;}
	.st2{fill:#FECE56;}
</style>
<g id="SVGRepo_iconCarrier">
	<path class="st0" d="M48.45,0.19L35.32,1.93L-0.5,37.75L25.9,64.14l35.82-35.82l1.79-13.07L48.45,0.19z M48.47,17.89
		c-1.47,0-2.66-1.19-2.66-2.67c0-1.47,1.19-2.67,2.66-2.67c1.47,0,2.67,1.19,2.67,2.67C51.14,16.7,49.94,17.89,48.47,17.89z"/>
	<path class="st1" d="M48.47,20.56L48.47,20.56c-1.43,0-2.76-0.55-3.77-1.56c-1.01-1.01-1.56-2.35-1.56-3.77
		c0-2.94,2.39-5.33,5.33-5.33c1.43,0,2.76,0.55,3.77,1.56c1.01,1.01,1.56,2.35,1.56,3.77s-0.55,2.76-1.56,3.77
		C51.23,20,49.9,20.56,48.47,20.56L48.47,20.56z M48.47,12.56c-1.47,0-2.66,1.2-2.66,2.67c0,0.71,0.28,1.38,0.78,1.88
		c0.5,0.5,1.17,0.78,1.88,0.78h0c0.71,0,1.38-0.28,1.88-0.78c0.5-0.5,0.78-1.17,0.78-1.88c0-0.71-0.28-1.38-0.78-1.88
		C49.85,12.84,49.18,12.56,48.47,12.56z"/>
	<g>
		<path class="st2" d="M22,40.58c-2.08,1.17-3.01,1.98-3.72,1.27c-0.58-0.58-0.44-1.42,0.39-2.24c0.95-0.95,1.9-1.05,2.76-0.33
			l1.69-1.7c-1.85-1.79-4.02-1.18-5.73,0.54c-1.9,1.9-2.18,4.1-0.7,5.57c1.66,1.66,3.26,0.72,4.97-0.23c2.16-1.2,2.83-1.64,3.47-1
			c0.68,0.68,0.52,1.66-0.42,2.6c-1.09,1.09-2.24,1.37-3.38,0.31l-1.78,1.78c1.87,1.82,4.24,1.58,6.45-0.63
			c1.66-1.66,2.64-4.06,0.72-5.99C25.36,39.17,23.87,39.53,22,40.58z"/>
		<polygon class="st2" points="29.26,35.88 33.25,31.9 31.84,30.49 27.85,34.48 26.08,32.7 30.42,28.36 28.95,26.89 22.84,33.01 
			30.99,41.16 37.19,34.97 35.69,33.47 31.27,37.89 		"/>
		<path class="st2" d="M34.27,21.19c-2.44,2.44-2.35,5.74,0.24,8.32c2.55,2.55,5.87,2.64,8.29,0.23c2.39-2.39,2.29-5.72-0.25-8.27
			C39.99,18.92,36.65,18.81,34.27,21.19z M41.33,28.26c-1.4,1.37-3.3,1.17-5.05-0.58c-1.7-1.7-1.92-3.64-0.57-4.99
			c1.36-1.36,3.28-1.14,4.99,0.57C42.44,24.99,42.68,26.9,41.33,28.26z"/>
	</g>
</g>
</svg>
